<svg width="20" height="29" viewBox="0 0 20 29" fill="none" xmlns="http://www.w3.org/2000/svg">
<path d="M10.0019 3.12256e-05C11.9702 3.12256e-05 12.5887 1.41184 13.1076 2.82144C13.3256 3.42002 18.4407 17.4275 18.5944 17.8479C18.6354 17.9652 18.6077 18.1577 18.4274 18.2274C18.2459 18.296 15.5883 19.3294 15.4411 19.3848C15.294 19.4412 15.1291 19.3593 15.076 19.2122C15.0207 19.0672 13.9176 16.0135 13.7936 15.6727H6.21234C6.09285 16.0135 4.97646 19.0739 4.92667 19.2122C4.87577 19.3527 4.71755 19.4478 4.56044 19.3848C4.40332 19.3228 1.73571 18.2894 1.57638 18.2274C1.42369 18.1677 1.35399 17.994 1.4071 17.8479C1.59519 17.3235 6.63279 3.54062 6.88948 2.82144C7.38959 1.43286 8.02911 3.12256e-05 10.0019 3.12256e-05ZM1.00214 25.0641C0.842816 25.0641 0.715576 25.1969 0.715576 25.3584V28.6323C0.715576 28.7939 0.842816 28.9244 1.00214 28.9244H18.9939C19.1565 28.9244 19.2838 28.7939 19.2838 28.6323V25.3584C19.2838 25.1969 19.1565 25.0641 18.9939 25.0641H1.00214ZM9.98418 4.57403L7.42168 12.2693H12.5887L10.0174 4.57403H9.98418Z" fill="#575483"/>
</svg>
