<svg width="40" height="24" viewBox="0 0 40 24" fill="none" xmlns="http://www.w3.org/2000/svg">
<path d="M25.123 21.4321H14.6257V2.56677H25.123V21.4321Z" fill="#9F9CC7"/>
<path d="M15.2981 11.9979C15.2981 8.17102 17.0899 4.76212 19.8802 2.56528C17.8397 0.958849 15.2645 2.24329e-05 12.4659 2.24329e-05C5.84028 2.24329e-05 0.469482 5.37159 0.469482 11.9979C0.469482 18.6243 5.84028 23.9958 12.4659 23.9958C15.2645 23.9958 17.8397 23.037 19.8802 21.4306C17.0899 19.2338 15.2981 15.8249 15.2981 11.9979Z" fill="#575483"/>
<path d="M39.2801 11.9979C39.2801 18.6243 33.9093 23.9958 27.2837 23.9958C24.4851 23.9958 21.9099 23.037 19.8687 21.4306C22.6597 19.2338 24.4515 15.8249 24.4515 11.9979C24.4515 8.17102 22.6597 4.76212 19.8687 2.56528C21.9099 0.958849 24.4851 2.24329e-05 27.2837 2.24329e-05C33.9093 2.24329e-05 39.2801 5.37159 39.2801 11.9979Z" fill="#7C79AD"/>
</svg>
