<svg width="29" height="29" viewBox="0 0 29 29" fill="none" xmlns="http://www.w3.org/2000/svg">
<path d="M14.5 29C22.5081 29 29 22.5081 29 14.5C29 6.49187 22.5081 0 14.5 0C6.49187 0 0 6.49187 0 14.5C0 22.5081 6.49187 29 14.5 29Z" fill="#575483"/>
<path fill-rule="evenodd" clip-rule="evenodd" d="M3.33081 14.6883C3.33081 14.6883 9.78594 16.082 10.693 13.0821C11.5824 10.1407 8.63298 9.53242 8.63298 9.53242H7.3373V14.4646H5.94894V9.69275H4.71958V9.18851C4.71958 9.18851 9.37728 9.16997 9.89159 9.23009C12.4776 9.53242 13.7362 14.1653 9.59451 15.0884C6.37309 15.8064 3.33081 14.6883 3.33081 14.6883ZM5.94109 15.7509V18.7115C5.94109 18.7115 5.93299 19.3415 5.36469 19.3415C4.79638 19.3415 4.65712 19.3415 4.65712 19.3415V19.8357H8.66368V19.292H7.77739C7.77739 19.292 7.32023 19.2402 7.32023 18.7753C7.32023 18.3105 7.32023 15.7237 7.32023 15.7237H5.94901L5.94109 15.7509ZM11.0618 19.8602H15.0971V19.2415H13.9371C13.9371 19.2415 13.5603 19.0286 13.5603 18.5977C13.5603 18.1667 13.5603 11.1461 13.5603 11.1461L18.058 19.8508L22.4579 11.3128L22.3612 18.6784C22.3612 18.6784 22.4715 19.2872 21.849 19.2872C21.2265 19.2872 21.0945 19.306 21.0945 19.306L21.087 19.78H25.1225V19.2166H24.1805C24.1805 19.2166 23.7878 19.2551 23.7878 18.8239C23.7878 18.3927 23.7878 9.88402 23.7878 9.88402C23.7878 9.88402 23.7936 9.68871 24.1411 9.68871H24.9589V9.08655H22.4551L18.3328 17.6298L14.2363 9.14688H11.9958V9.65743H12.7072C12.7072 9.65743 12.9538 9.63026 12.9538 10.0051C12.9538 10.38 12.8572 18.6373 12.8572 18.6373C12.8572 18.6373 12.8897 19.2783 12.1861 19.2783C11.4825 19.2783 11.0633 19.2783 11.0633 19.2783V19.9013L11.0618 19.8602Z" fill="#9F9CC7"/>
</svg>
