<svg width="27" height="27" viewBox="0 0 27 27" fill="none" xmlns="http://www.w3.org/2000/svg">
<path d="M22.1543 18.1508C22.1184 17.854 21.9379 17.1738 21.4685 16.9991H21.4691C21.2341 16.9118 21.0356 16.9812 20.9459 17.1385C20.8012 17.3832 20.9095 17.854 21.1803 18.2733C21.4506 18.6921 21.7035 18.9015 21.884 18.9015C22.0646 18.9015 22.2266 18.6921 22.1543 18.1508Z" fill="#9F9CC7"/>
<path d="M19.6287 19.3377C19.3399 19.0935 19.0153 18.9715 18.7265 18.9715C18.4742 18.9715 18.2757 19.0583 18.1489 19.2156C17.8248 19.5991 17.9689 20.2978 18.4742 20.7166C18.6906 20.9086 19.0153 21.0133 19.322 21.0133C19.6287 21.0133 19.899 20.8913 20.0616 20.6992C20.3504 20.3152 20.1878 19.7917 19.6287 19.3377Z" fill="#9F9CC7"/>
<path d="M0 12.0074C0 18.6395 5.55638 24.0153 12.4126 24.0153H12.412C14.2344 24.0153 16.0383 23.6839 18.6906 23.666C21.0541 23.666 23.652 24.4688 26.5023 26.9126C26.7911 27.1567 27.1696 26.8426 26.9172 26.5459C24.1208 23.1078 21.5229 22.4622 18.925 21.9035C15.7501 21.2227 14.1262 19.5123 12.9896 17.6099C12.7731 17.2259 12.6649 17.2958 12.6464 17.7846C12.6259 18.5037 12.6804 19.2231 12.809 19.9316H12.4305C7.90196 19.9316 4.22126 16.3709 4.22126 11.99C4.22126 7.6091 7.90196 4.04839 12.4299 4.04839C16.9585 4.04839 20.6392 7.6091 20.6392 11.99C20.6392 12.3041 20.6207 12.6182 20.5848 12.9149C19.9713 12.8102 18.7988 12.7929 17.9689 12.8628C17.6622 12.8976 17.6981 13.037 17.933 13.0722C20.6392 13.5604 22.4975 15.184 22.9304 18.1334C22.9483 18.2034 23.0386 18.2207 23.075 18.1687C24.1752 16.3709 24.8246 14.2586 24.8246 12.0074C24.8246 5.37579 19.2676 0 12.412 0C5.55694 0 0 5.37525 0 12.0074Z" fill="#9F9CC7"/>
</svg>
