<svg width="20" height="26" viewBox="0 0 20 26" fill="none" xmlns="http://www.w3.org/2000/svg">
<path fill-rule="evenodd" clip-rule="evenodd" d="M0.341838 12.417C0.341838 11.0114 0.459172 10.1194 3.35747 7.94652C5.75695 6.14754 13.4481 0 13.4481 0V10.2622H19.2971V25.0321H2.16867C1.16394 25.0321 0.341553 24.2061 0.341553 23.1969L0.341838 12.4171V12.417Z" fill="#9F9CC7"/>
<path fill-rule="evenodd" clip-rule="evenodd" d="M13.4481 10.2621V16.2083L2.7002 23.5622L16.2889 19.1216V10.2621H13.4481Z" fill="#575483"/>
<path fill-rule="evenodd" clip-rule="evenodd" d="M8.53668 9.95463C9.16525 9.20245 10.0832 8.93696 10.5872 9.3617C11.0912 9.78653 10.9905 10.7407 10.3619 11.4929C9.73382 12.245 8.81552 12.5102 8.31149 12.0854C7.80746 11.6606 7.9085 10.7066 8.53668 9.95454V9.95463Z" fill="#7C79AD"/>
</svg>
