<svg id="Capa_1" data-name="Capa 1" xmlns="http://www.w3.org/2000/svg" viewBox="0 0 405 341.96"><defs><style>.cls-1{stroke:#1fb3d5;stroke-miterlimit:10;stroke-width:9px;}</style></defs><title>case</title><path fill="#1fb3d5" class="cls-1" d="M378,87.28v.12H274.52V64.64A23.16,23.16,0,0,0,251.4,41.52h-90a23.22,23.22,0,0,0-23.12,23.12V87.4H38a28,28,0,0,0-28,28v229a30.19,30.19,0,0,0,30.12,30.12H375.6a30.2,30.2,0,0,0,30.4-30V115.28A28,28,0,0,0,378,87.28ZM149.8,64.64A11.68,11.68,0,0,1,161.44,53h89.92A11.72,11.72,0,0,1,263,64.64V87.4H149.8ZM21.6,117.28A18.71,18.71,0,0,1,40.24,98.64H375.72a18.71,18.71,0,0,1,18.64,18.64l-.12,112.12a16.47,16.47,0,0,1-16.4,16.4H232V229.56a13.87,13.87,0,0,0-13.88-13.88H197.84a13.66,13.66,0,0,0-13.76,13.76v16.24H38a16.47,16.47,0,0,1-16.4-16.4ZM195.32,245.8V229.56a2.32,2.32,0,0,1,2.36-2.24H218a2.4,2.4,0,0,1,2.4,2.4V246Zm25.08,11.48v16.24a2.32,2.32,0,0,1-2.36,2.36h-20.2a2.4,2.4,0,0,1-2.4-2.4v-16.2Zm174,87.08A18.71,18.71,0,0,1,375.76,363H40.24A18.71,18.71,0,0,1,21.6,344.36V252A27.68,27.68,0,0,0,38,257.28H184v16.24a13.87,13.87,0,0,0,13.88,13.88H218.2A13.66,13.66,0,0,0,232,273.64V257.28H378A27.8,27.8,0,0,0,394.4,252v92.36Z" transform="translate(-5.5 -37.02)"/></svg>
