<?xml version="1.0"?>
<svg xmlns="http://www.w3.org/2000/svg" height="512px" viewBox="0 0 512 512" width="512px" class=""><g><path d="m397.921875 73.191406c-1.828125 0-3.671875-.558594-5.246094-1.730468-39.730469-29.425782-86.871093-44.976563-136.332031-44.976563-51.457031 0-102.277344 16.699219-135.945312 44.675781-2.628907 2.171875-6.292969 2.65625-9.390626 1.199219-3.097656-1.464844-5.078124-4.574219-5.078124-7.996094v-55.535156c0-4.882813 3.957031-8.828125 8.828124-8.828125 4.875 0 8.828126 3.945312 8.828126 8.828125v37.976563c35.917968-23.996094 84.179687-37.976563 132.757812-37.976563 53.273438 0 104.050781 16.746094 146.839844 48.4375 3.917968 2.902344 4.738281 8.429687 1.835937 12.339844-1.730469 2.347656-4.398437 3.585937-7.097656 3.585937zm0 0" data-original="#000000" class="active-path" data-old_color="#000000" fill="#1FB3D5"/><path d="m447.628906 406.757812c-1.828125 0-3.671875-.554687-5.242187-1.730468-3.921875-2.90625-4.742188-8.429688-1.835938-12.339844 29.414063-39.742188 44.964844-86.875 44.964844-136.34375 0-51.457031-16.699219-102.285156-44.664063-135.945312-2.191406-2.628907-2.660156-6.292969-1.203124-9.382813 1.457031-3.089844 4.566406-5.085937 7.988281-5.085937h55.535156c4.875 0 8.828125 3.949218 8.828125 8.828124 0 4.882813-3.953125 8.828126-8.828125 8.828126h-37.976563c23.996094 35.910156 37.976563 84.179687 37.976563 132.757812 0 53.273438-16.746094 104.050781-48.4375 146.839844-1.738281 2.339844-4.402344 3.574218-7.105469 3.574218zm0 0" data-original="#000000" class="active-path" data-old_color="#000000" fill="#1FB3D5"/><path d="m397.242188 512c-4.875 0-8.828126-3.945312-8.828126-8.828125v-37.976563c-35.917968 23.996094-84.179687 37.976563-132.757812 37.976563-53.273438 0-104.050781-16.746094-146.839844-48.4375-3.917968-2.902344-4.738281-8.429687-1.835937-12.339844 2.90625-3.929687 8.429687-4.757812 12.351562-1.84375 39.722657 29.421875 86.863281 44.976563 136.332031 44.976563 51.457032 0 102.277344-16.703125 135.945313-44.675782 2.628906-2.171874 6.292969-2.648437 9.390625-1.203124 3.089844 1.457031 5.070312 4.566406 5.070312 7.988281v55.535156c0 4.882813-3.957031 8.828125-8.828124 8.828125zm0 0" data-original="#000000" class="active-path" data-old_color="#000000" fill="#1FB3D5"/><path d="m64.363281 406.070312h-55.535156c-4.875 0-8.828125-3.949218-8.828125-8.828124 0-4.882813 3.953125-8.828126 8.828125-8.828126h37.976563c-23.996094-35.910156-37.976563-84.179687-37.976563-132.757812 0-53.273438 16.746094-104.050781 48.4375-146.839844 2.902344-3.925781 8.429687-4.757812 12.347656-1.84375 3.921875 2.90625 4.742188 8.429688 1.835938 12.339844-29.414063 39.742188-44.964844 86.875-44.964844 136.34375 0 51.457031 16.699219 102.285156 44.664063 135.945312 2.191406 2.628907 2.660156 6.292969 1.203124 9.382813-1.457031 3.089844-4.566406 5.085937-7.988281 5.085937zm0 0" data-original="#000000" class="active-path" data-old_color="#000000" fill="#1FB3D5"/><path d="m256 450.207031c-107.085938 0-194.207031-87.121093-194.207031-194.207031s87.121093-194.207031 194.207031-194.207031 194.207031 87.121093 194.207031 194.207031-87.121093 194.207031-194.207031 194.207031zm0-370.757812c-97.351562 0-176.550781 79.199219-176.550781 176.550781s79.199219 176.550781 176.550781 176.550781 176.550781-79.199219 176.550781-176.550781-79.199219-176.550781-176.550781-176.550781zm0 0" data-original="#000000" class="active-path" data-old_color="#000000" fill="#1FB3D5"/><path d="m226.683594 393.984375c-.644532 0-1.296875-.070313-1.949219-.210937-20.535156-4.636719-40.125-14.054688-56.648437-27.214844-3.8125-3.046875-4.441407-8.601563-1.402344-12.40625 3.035156-3.820313 8.589844-4.4375 12.402344-1.402344 14.449218 11.519531 31.585937 19.746094 49.53125 23.800781 4.757812 1.074219 7.742187 5.796875 6.664062 10.554688-.917969 4.089843-4.5625 6.878906-8.597656 6.878906zm58.890625-.054687c-4.027344 0-7.664063-2.761719-8.601563-6.859376-1.085937-4.746093 1.890625-9.480468 6.640625-10.566406 17.9375-4.09375 35.054688-12.355468 49.488281-23.902344 3.804688-3.046874 9.355469-2.421874 12.410157 1.382813 3.046875 3.804687 2.425781 9.367187-1.378907 12.40625-16.496093 13.1875-36.066406 22.632813-56.582031 27.320313-.671875.148437-1.332031.21875-1.976562.21875zm-148.800781-71.429688c-3.273438 0-6.425782-1.828125-7.953126-4.972656-9.292968-19.171875-14.027343-39.777344-14.070312-61.234375-.007812-4.875 3.9375-8.839844 8.808594-8.847657h.019531c4.871094 0 8.816406 3.9375 8.828125 8.8125.035156 18.773438 4.175781 36.800782 12.304688 53.554688 2.128906 4.386719.289062 9.675781-4.097657 11.792969-1.234375.609375-2.539062.894531-3.839843.894531zm238.566406-.238281c-1.289063 0-2.59375-.285157-3.832032-.882813-4.394531-2.113281-6.230468-7.390625-4.113281-11.785156 8.085938-16.773438 12.191407-34.808594 12.191407-53.59375 0-4.882812 3.953124-9.09375 8.828124-9.09375 4.871094 0 8.828126 3.683594 8.828126 8.5625v.53125c0 21.46875-4.6875 42.082031-13.949219 61.261719-1.515625 3.160156-4.679688 5-7.953125 5zm-238.804688-114.628907c-1.277344 0-2.578125-.273437-3.8125-.875-4.394531-2.097656-6.25-7.378906-4.140625-11.773437 9.101563-18.972656 22.609375-35.980469 39.070313-49.195313 3.804687-3.046874 9.359375-2.4375 12.414062 1.359376 3.054688 3.804687 2.445313 9.363281-1.359375 12.410156-14.417969 11.5625-26.238281 26.457031-34.207031 43.0625-1.519531 3.167968-4.671875 5.011718-7.964844 5.011718zm238.585938-.714843c-3.277344 0-6.417969-1.828125-7.945313-4.960938-8.0625-16.542969-19.976562-31.363281-34.457031-42.847656-3.820312-3.027344-4.457031-8.582031-1.429688-12.394531 3.027344-3.824219 8.582032-4.46875 12.402344-1.429688 16.542969 13.109375 30.148438 30.039063 39.355469 48.957032 2.136719 4.378906.308594 9.667968-4.070313 11.800781-1.246093.59375-2.558593.875-3.855468.875zm-148.96875-71.125c-4.015625 0-7.652344-2.753907-8.597656-6.839844-1.09375-4.75 1.871093-9.488281 6.621093-10.585937 20.445313-4.695313 42.363281-4.78125 62.816407-.183594 4.757812 1.066406 7.742187 5.792968 6.675781 10.550781-1.070313 4.757813-5.792969 7.722656-10.550781 6.671875-17.882813-4.015625-37.101563-3.945312-54.984376.167969-.65625.148437-1.324218.21875-1.980468.21875zm0 0" data-original="#000000" class="active-path" data-old_color="#000000" fill="#1FB3D5"/><path d="m273.65625 317.792969h-52.964844c-4.875 0-8.828125-3.945313-8.828125-8.828125 0-4.882813 3.953125-8.828125 8.828125-8.828125h52.964844c9.734375 0 17.652344-7.917969 17.652344-17.652344 0-9.738281-7.917969-17.65625-17.652344-17.65625h-35.3125c-19.472656 0-35.308594-15.835937-35.308594-35.3125 0-19.472656 15.835938-35.308594 35.308594-35.308594h52.964844c4.875 0 8.828125 3.945313 8.828125 8.828125 0 4.882813-3.953125 8.828125-8.828125 8.828125h-52.964844c-9.734375 0-17.652344 7.917969-17.652344 17.652344 0 9.738281 7.917969 17.65625 17.652344 17.65625h35.3125c19.472656 0 35.308594 15.835937 35.308594 35.3125 0 19.472656-15.835938 35.308594-35.308594 35.308594zm0 0" data-original="#000000" class="active-path" data-old_color="#000000" fill="#1FB3D5"/><path d="m256 335.449219c-4.871094 0-8.828125-3.945313-8.828125-8.828125v-141.242188c0-4.882812 3.957031-8.828125 8.828125-8.828125s8.828125 3.945313 8.828125 8.828125v141.242188c0 4.882812-3.957031 8.828125-8.828125 8.828125zm0 0" data-original="#000000" class="active-path" data-old_color="#000000" fill="#1FB3D5"/></g> </svg>
