<svg id="Режим_изоляции" data-name="Режим изоляции" xmlns="http://www.w3.org/2000/svg" viewBox="0 0 255.99 158.6"><defs><style>.cls-1{fill:#48abc5;}</style></defs><title>arrow</title><path class="cls-1" d="M-395.69,32.37c-1.25,1.53-2.31,2.76-3.29,4-8.88,11.67-17.64,23.42-26.64,35-10,12.87-27,15.2-39.46,5.64-12.29-9.4-14.65-26.34-5-39.2Q-444.94,4.25-419.33-29c11.78-15.22,32-15.47,44.44-.79C-360.36-12.65-346,4.64-331.06,22.43l23-26.13c-1.59-1.28-3-2.38-4.4-3.56C-322.66-16-321-31.64-308.7-37q32.22-14.08,65-27c12.8-5,25.21,5.53,23.53,19.48-1.9,15.7-4.05,31.37-6.11,47.05-.84,6.44-1.76,12.86-2.61,19.3-2,15-16.81,21.44-29,12.65-1.74-1.26-3.43-2.6-5.56-4.21-2.62,2.93-5.14,5.73-7.63,8.56Q-290.1,60.4-309.07,82c-13.36,15.23-32.25,15.09-45.2-.35q-18.63-22.2-37.24-44.43C-392.78,35.71-394.09,34.22-395.69,32.37Zm160.44-79c.1-2.43-1-4.23-4.76-2.64-2.45,1-4.92,2-7.37,3.06Q-273.21-35.54-299-24.83c-6.25,2.6-6.36,3.87-.82,8.14,1.85,1.42,3.71,2.83,5.55,4.26,6.23,4.84,6.61,8.53,1.35,14.55q-15.13,17.31-30.35,34.55c-6,6.83-9.91,6.81-15.74-.13q-22.83-27.16-45.58-54.39c-8.54-10.19-16.45-10.08-24.43.37Q-423.59,1.59-438.1,20.69C-444.75,29.45-451.56,38.09-458,47c-6.19,8.6-1.27,19.72,8.88,20.51,5.56.44,9.35-2.5,12.56-6.76Q-420,38.82-403.28,17c4.62-6,9.42-6.11,14.33-.34,4.1,4.82,8.12,9.71,12.19,14.56C-365.2,45-353.72,58.87-342,72.56c6.25,7.34,14.1,7.38,20.64.44,1.6-1.69,3.11-3.48,4.64-5.23q22.44-25.54,44.86-51.08c4.92-5.59,8-5.85,14.1-1.25,2.66,2,5.23,4.13,7.92,6.09,3.7,2.68,5.38,2.09,6-2.28C-241-2.37-238.22-24-235.25-46.64Z" transform="translate(476.04 65.27)"/></svg>