<?xml version="1.0"?>
<svg xmlns="http://www.w3.org/2000/svg" id="Layer_3" enable-background="new 0 0 64 64" height="512px" viewBox="0 0 64 64" width="512px"><g><g><path d="m47 25.586 2.586-2.586h-2.586z" data-original="#000000" class="active-path" data-old_color="#000000" fill="#1FB3D5"/><path d="m7 23h4v4h-4z" data-original="#000000" class="active-path" data-old_color="#000000" fill="#1FB3D5"/><path d="m7 43h4v4h-4z" data-original="#000000" class="active-path" data-old_color="#000000" fill="#1FB3D5"/><path d="m7 33h4v4h-4z" data-original="#000000" class="active-path" data-old_color="#000000" fill="#1FB3D5"/><path d="m17 53h4v4h-4z" data-original="#000000" class="active-path" data-old_color="#000000" fill="#1FB3D5"/><path d="m37 35.586 2.586-2.586h-2.586z" data-original="#000000" class="active-path" data-old_color="#000000" fill="#1FB3D5"/><path d="m37 23h4v4h-4z" data-original="#000000" class="active-path" data-old_color="#000000" fill="#1FB3D5"/><path d="m55 3h-52v14h52zm-36 4c0 1.2-.542 2.266-1.382 3 .84.734 1.382 1.8 1.382 3v2h-2v-2c0-1.103-.897-2-2-2v4h-2v-10h2v4c1.103 0 2-.897 2-2v-2h2zm7 0h-3v2h3v2h-3v2h3v2h-4c-.552 0-1-.448-1-1v-8c0-.552.448-1 1-1h4zm9 7c0 .446-.295.838-.724.961-.091.026-.184.039-.276.039-.338 0-.662-.172-.848-.47l-3.152-5.043v5.513h-2v-9c0-.446.295-.838.724-.961.428-.121.888.053 1.124.432l3.152 5.042v-5.513h2zm10-3c0 2.206-1.794 4-4 4s-4-1.794-4-4v-2c0-2.206 1.794-4 4-4s4 1.794 4 4z" data-original="#000000" class="active-path" data-old_color="#000000" fill="#1FB3D5"/><path d="m7 53h4v4h-4z" data-original="#000000" class="active-path" data-old_color="#000000" fill="#1FB3D5"/><path d="m41 7c-1.103 0-2 .897-2 2v2c0 1.103.897 2 2 2s2-.897 2-2v-2c0-1.103-.897-2-2-2z" data-original="#000000" class="active-path" data-old_color="#000000" fill="#1FB3D5"/><path d="m17 43h4v4h-4z" data-original="#000000" class="active-path" data-old_color="#000000" fill="#1FB3D5"/><path d="m27 23h4v4h-4z" data-original="#000000" class="active-path" data-old_color="#000000" fill="#1FB3D5"/><path d="m27 33h4v4h-4z" data-original="#000000" class="active-path" data-old_color="#000000" fill="#1FB3D5"/><path d="m17 33h4v4h-4z" data-original="#000000" class="active-path" data-old_color="#000000" fill="#1FB3D5"/><path d="m28.236 49.764 5.172-2.586 27.178-27.178-2.586-2.586-27.178 27.179z" data-original="#000000" class="active-path" data-old_color="#000000" fill="#1FB3D5"/><path d="m17 23h4v4h-4z" data-original="#000000" class="active-path" data-old_color="#000000" fill="#1FB3D5"/><path d="m53 32v6c0 .553-.448 1-1 1h-6c-.43 0-.789-.274-.93-.656l-2.725 2.725c.38.142.655.501.655.931v6c0 .553-.448 1-1 1h-6c-.43 0-.789-.274-.93-.656l-.363.363c-.076.076-.164.14-.26.188l-8 4c-.142.071-.295.105-.447.105-.26 0-.516-.101-.708-.293-.304-.305-.38-.77-.188-1.154l1.278-2.553h-.382c-.552 0-1-.447-1-1v-6c0-.553.448-1 1-1h5.586l3.414-3.414v-5.586c0-.552.448-1 1-1h5.586l3.414-3.414v-5.586c0-.552.448-1 1-1h5.586l2-2h-50.586v42h52v-32.586l-2.656 2.656c.381.141.656.5.656.93zm-18-10c0-.552.448-1 1-1h6c.552 0 1 .448 1 1v6c0 .552-.448 1-1 1h-6c-.552 0-1-.448-1-1zm-10 0c0-.552.448-1 1-1h6c.552 0 1 .448 1 1v6c0 .552-.448 1-1 1h-6c-.552 0-1-.448-1-1zm0 10c0-.552.448-1 1-1h6c.552 0 1 .448 1 1v6c0 .553-.448 1-1 1h-6c-.552 0-1-.447-1-1zm-12 26c0 .553-.448 1-1 1h-6c-.552 0-1-.447-1-1v-6c0-.553.448-1 1-1h6c.552 0 1 .447 1 1zm0-10c0 .553-.448 1-1 1h-6c-.552 0-1-.447-1-1v-6c0-.553.448-1 1-1h6c.552 0 1 .447 1 1zm0-10c0 .553-.448 1-1 1h-6c-.552 0-1-.447-1-1v-6c0-.552.448-1 1-1h6c.552 0 1 .448 1 1zm0-10c0 .552-.448 1-1 1h-6c-.552 0-1-.448-1-1v-6c0-.552.448-1 1-1h6c.552 0 1 .448 1 1zm10 30c0 .553-.448 1-1 1h-6c-.552 0-1-.447-1-1v-6c0-.553.448-1 1-1h6c.552 0 1 .447 1 1zm0-10c0 .553-.448 1-1 1h-6c-.552 0-1-.447-1-1v-6c0-.553.448-1 1-1h6c.552 0 1 .447 1 1zm0-10c0 .553-.448 1-1 1h-6c-.552 0-1-.447-1-1v-6c0-.552.448-1 1-1h6c.552 0 1 .448 1 1zm0-10c0 .552-.448 1-1 1h-6c-.552 0-1-.448-1-1v-6c0-.552.448-1 1-1h6c.552 0 1 .448 1 1zm10 30c0 .553-.448 1-1 1h-6c-.552 0-1-.447-1-1v-4.009h2v3.009h4v-5h2zm10 0c0 .553-.448 1-1 1h-6c-.552 0-1-.447-1-1v-6c0-.553.448-1 1-1h6c.552 0 1 .447 1 1zm10 0c0 .553-.448 1-1 1h-6c-.552 0-1-.447-1-1v-6c0-.553.448-1 1-1h6c.552 0 1 .447 1 1zm0-10c0 .553-.448 1-1 1h-6c-.552 0-1-.447-1-1v-6c0-.553.448-1 1-1h6c.552 0 1 .447 1 1z" data-original="#000000" class="active-path" data-old_color="#000000" fill="#1FB3D5"/><path d="m29.586 43h-2.586v4h.382l1.724-3.447c.048-.096.111-.184.188-.26z" data-original="#000000" class="active-path" data-old_color="#000000" fill="#1FB3D5"/><path d="m47 53h4v4h-4z" data-original="#000000" class="active-path" data-old_color="#000000" fill="#1FB3D5"/><path d="m37 53h4v4h-4z" data-original="#000000" class="active-path" data-old_color="#000000" fill="#1FB3D5"/><path d="m47 37h4v-4h-.586l-3.414 3.414z" data-original="#000000" class="active-path" data-old_color="#000000" fill="#1FB3D5"/><path d="m37 47h4v-4h-.586l-3.414 3.414z" data-original="#000000" class="active-path" data-old_color="#000000" fill="#1FB3D5"/><path d="m47 43h4v4h-4z" data-original="#000000" class="active-path" data-old_color="#000000" fill="#1FB3D5"/></g></g> </svg>
