<svg width="78" height="78" viewBox="0 0 78 78" fill="none" xmlns="http://www.w3.org/2000/svg">
    <g>
        <path d="M23.4007 31.1992C10.4992 31.1992 0.000183105 41.6982 0.000183105 54.5997C0.000183105 67.5012 10.4992 78.0002 23.4007 78.0002C36.3021 78.0002 46.8012 67.5012 46.8012 54.5997C46.8012 41.6982 36.3021 31.1992 23.4007 31.1992ZM23.4007 72.8001C13.3645 72.8001 5.20029 64.6359 5.20029 54.5997C5.20029 44.5635 13.3645 36.3993 23.4007 36.3993C33.4369 36.3993 41.6011 44.5635 41.6011 54.5997C41.6011 64.6359 33.4369 72.8001 23.4007 72.8001Z"
              fill="#1FB3D5"/>
        <path d="M77.2686 0.79403C76.4469 -0.0587881 75.1573 -0.245992 74.1277 0.33642L45.4491 16.4672L48.018 3.63849C48.2416 2.51527 47.7059 1.37644 46.6971 0.835631C45.6727 0.294819 44.4351 0.476823 43.6291 1.28804L6.8539 38.0528C5.83988 39.0668 5.83988 40.7153 6.8539 41.7293C7.86792 42.7433 9.51636 42.7433 10.5304 41.7293L41.2318 11.033L39.2402 20.9965C39.0374 21.9949 39.4378 23.0141 40.2594 23.6121C41.0862 24.2049 42.1782 24.2777 43.0623 23.7733L68.0488 9.71742L50.592 38.5468C50.0824 39.3944 50.098 40.4553 50.6232 41.2925C51.1536 42.1297 52.1104 42.5769 53.1037 42.4781L62.2818 41.4589L36.2657 67.4698C35.2517 68.4839 35.2517 70.1323 36.2657 71.1463C36.7753 71.6507 37.4409 71.9055 38.1065 71.9055C38.7722 71.9055 39.4378 71.6507 39.9422 71.1411L71.2 39.8884C71.9852 39.1084 72.188 37.9176 71.7044 36.9244C71.2312 35.9312 70.1756 35.3696 69.0732 35.4684L57.7734 36.7216L77.6222 3.9453C78.2358 2.93647 78.0902 1.64165 77.2686 0.79403Z"
              fill="#1FB3D5"/>
    </g>
</svg>
