<svg id="Режим_изоляции" data-name="Режим изоляции" xmlns="http://www.w3.org/2000/svg" viewBox="0 0 486.09 467.31"><defs><style>.cls-1{fill:none;stroke:#1fb3d5;stroke-linecap:round;stroke-linejoin:round;stroke-width:18px;}</style></defs><title>rocket</title><path class="cls-1" d="M157.23-233.74S297-421.27,402.13-520.55s247.1,15.44,167.67,149.29S219-108.72,219-108.72s100.75-64.72,140.83-119.14c-57,39-202.61,119.14-202.61,119.14S295.49-228.59,326.38-275.66c-65.45,45.6-201.51,130.91-201.51,130.91S255.78-285.18,309.46-333.37C262.4-313.9,245.48-304.34,157.23-233.74Z" transform="translate(-115.87 567.03)"/><path class="cls-1" d="M451.4-508.79c-20.75,10.14-47.07,32.36-61,71.34-2.21,8.82,8.83-2.94,19.86-8.09s37.5-11.28,24.27,11.27S411-394.93,407.28-387.88s-3.23,14.28,13.46,0,47.58-34.86,54.19-36.33-20.59,37.5-28.68,51.47S433-344,455.81-362.44s49.28-35.43,47.07-25.44-6.62,20.29-8.82,26.91-2.69,15.45,8.95,3.68,29.29-30.89,40.32-60.31,16.18-66.18-12.5-86.78S484.49-525,451.4-508.79Z" transform="translate(-115.87 567.03)"/></svg>