<?xml version="1.0"?>
<svg xmlns="http://www.w3.org/2000/svg" id="Layer_1" height="512px" viewBox="0 0 512 512" width="512px" data-name="Layer 1" class=""><g><path d="m350.5 12.278a26.488 26.488 0 0 0 -26.5 26.2v46.522h-136v-46.523a26.5 26.5 0 0 0 -53 0v435.046a26.5 26.5 0 0 0 53 0v-46.523h136v46.523a26.5 26.5 0 0 0 53 0v-435.046a26.488 26.488 0 0 0 -26.5-26.199zm-178.5 461.245a10.5 10.5 0 0 1 -21 0v-435.046a10.5 10.5 0 0 1 21 0zm152-62.523h-136v-13h136zm0-29h-136v-54h136zm0-70h-136v-13h136zm0-29h-136v-54h136zm0-70h-136v-13h136zm0-29h-136v-54h136zm0-70h-136v-13h136zm37 359.523a10.5 10.5 0 0 1 -21 0v-435.046a10.5 10.5 0 0 1 21 0z" data-original="#000000" class="active-path" data-old_color="#000000" fill="#1FB3D5"/></g> </svg>
