<svg width="14" height="12" viewBox="0 0 14 12" fill="none" xmlns="http://www.w3.org/2000/svg">
<path d="M7.00005 0.75C10.1454 0.75 12.7622 3.01333 13.3111 6C12.7628 8.98667 10.1454 11.25 7.00005 11.25C3.85472 11.25 1.23788 8.98667 0.688965 6C1.2373 3.01333 3.85472 0.75 7.00005 0.75ZM7.00005 10.0833C8.18974 10.0831 9.34411 9.67898 10.2742 8.93718C11.2043 8.19538 11.8551 7.15983 12.12 6C11.8541 4.84109 11.2029 3.80667 10.2729 3.06585C9.3429 2.32503 8.18906 1.92164 7.00005 1.92164C5.81104 1.92164 4.6572 2.32503 3.72718 3.06585C2.79717 3.80667 2.146 4.84109 1.88013 6C2.14502 7.15983 2.79577 8.19538 3.72588 8.93718C4.65599 9.67898 5.81036 10.0831 7.00005 10.0833ZM7.00005 8.625C6.30386 8.625 5.63618 8.34844 5.14389 7.85615C4.65161 7.36387 4.37505 6.69619 4.37505 6C4.37505 5.30381 4.65161 4.63613 5.14389 4.14384C5.63618 3.65156 6.30386 3.375 7.00005 3.375C7.69624 3.375 8.36392 3.65156 8.8562 4.14384C9.34849 4.63613 9.62505 5.30381 9.62505 6C9.62505 6.69619 9.34849 7.36387 8.8562 7.85615C8.36392 8.34844 7.69624 8.625 7.00005 8.625ZM7.00005 7.45833C7.38682 7.45833 7.75776 7.30469 8.03125 7.0312C8.30474 6.75771 8.45838 6.38677 8.45838 6C8.45838 5.61323 8.30474 5.24229 8.03125 4.9688C7.75776 4.69531 7.38682 4.54167 7.00005 4.54167C6.61327 4.54167 6.24234 4.69531 5.96885 4.9688C5.69536 5.24229 5.54172 5.61323 5.54172 6C5.54172 6.38677 5.69536 6.75771 5.96885 7.0312C6.24234 7.30469 6.61327 7.45833 7.00005 7.45833Z" fill="#686D89"/>
</svg>
