<svg width="10" height="14" viewBox="0 0 10 14" fill="none" xmlns="http://www.w3.org/2000/svg">
<path fill-rule="evenodd" clip-rule="evenodd" d="M5.72653 0.0233979C5.9561 0.0929064 6.11311 0.304497 6.11311 0.54436V5.02452H8.70909C8.90983 5.02452 9.09428 5.135 9.189 5.31199C9.28372 5.48898 9.27334 5.70374 9.16199 5.87077L4.13751 13.4075C4.00446 13.6071 3.75645 13.696 3.52688 13.6265C3.29731 13.557 3.1403 13.3454 3.1403 13.1055V8.62539H0.544319C0.343577 8.62539 0.159129 8.5149 0.0644075 8.33791C-0.0303142 8.16092 -0.0199327 7.94616 0.0914189 7.77914L5.11589 0.242427C5.24894 0.0428489 5.49695 -0.0461106 5.72653 0.0233979ZM1.56139 7.53675H3.68461C3.98523 7.53675 4.22893 7.78045 4.22893 8.08107V11.3078L7.69202 6.11315H5.56879C5.26817 6.11315 5.02447 5.86945 5.02447 5.56883V2.34212L1.56139 7.53675Z" fill="#686D89"/>
</svg>
