<svg width="13" height="14" viewBox="0 0 13 14" fill="none" xmlns="http://www.w3.org/2000/svg">
<path fill-rule="evenodd" clip-rule="evenodd" d="M2.29662 0.961942C2.31453 0.961956 2.33264 0.96197 2.35096 0.96197C2.36709 0.96197 2.38302 0.96196 2.39875 0.96195C2.64858 0.961791 2.84959 0.961663 3.03452 1.0026C3.53577 1.11357 3.96118 1.44279 4.19434 1.90017C4.28036 2.06891 4.33067 2.26353 4.39319 2.50541C4.39712 2.52064 4.40111 2.53606 4.40515 2.55168L4.73383 3.81996C4.73994 3.84353 4.746 3.86681 4.75198 3.88983C4.8487 4.26153 4.92719 4.56316 4.90014 4.86245C4.8764 5.1251 4.79255 5.37876 4.65507 5.60381C4.49841 5.86026 4.25561 6.05568 3.95641 6.2965C3.93789 6.31141 3.91914 6.3265 3.90019 6.34178L2.64748 7.35212C3.47473 8.7816 4.65069 9.91257 6.14171 10.7084L7.24668 9.43337C7.26173 9.41601 7.27657 9.39885 7.29125 9.38188C7.52934 9.10662 7.72266 8.88312 7.97007 8.73859C8.1873 8.61169 8.42974 8.53402 8.68028 8.51106C8.96561 8.48492 9.25282 8.55448 9.60654 8.64014C9.62834 8.64542 9.6504 8.65076 9.67272 8.65615L11.1666 9.01644C11.1799 9.01963 11.1929 9.02277 11.2058 9.02587C11.4102 9.07505 11.5744 9.11456 11.7194 9.17921C12.2364 9.40974 12.6067 9.87999 12.7096 10.4366C12.7384 10.5927 12.7383 10.7616 12.7382 10.9718C12.7382 10.9851 12.7382 10.9985 12.7382 11.0121C12.7382 11.0271 12.7382 11.0419 12.7382 11.0565C12.7384 11.3 12.7385 11.4982 12.6939 11.6909C12.5397 12.3568 11.9322 12.9119 11.2552 13.0057C11.0596 13.0328 10.8856 13.017 10.6758 12.998C10.6647 12.997 10.6535 12.9959 10.6423 12.9949C8.92849 12.8404 7.38682 12.4314 6.04544 11.7812C4.07751 10.8273 2.5564 9.36156 1.56427 7.4567C0.905391 6.19167 0.48447 4.74204 0.31463 3.13369C0.313174 3.1199 0.311722 3.10625 0.310283 3.09271C0.283071 2.83675 0.260468 2.62413 0.301728 2.38662C0.409416 1.76674 0.919653 1.19978 1.5248 1.02759C1.75703 0.961515 1.99933 0.961706 2.29662 0.961942ZM7.08304 11.1491C8.1605 11.5882 9.37972 11.877 10.7321 11.999C10.989 12.0221 11.048 12.0248 11.118 12.0152C11.3845 11.9782 11.659 11.7274 11.7197 11.4653C11.7352 11.3982 11.7382 11.3218 11.7382 11.0121C11.7382 10.7415 11.7362 10.6721 11.7262 10.6184C11.6832 10.3856 11.5283 10.1889 11.3121 10.0925C11.2622 10.0703 11.1952 10.052 10.9322 9.98857L9.43827 9.62827C8.98445 9.51882 8.87033 9.49784 8.77151 9.50689C8.66673 9.51649 8.56534 9.54897 8.47449 9.60205C8.3888 9.65211 8.30812 9.7355 8.00239 10.0883L7.08304 11.1491ZM2.18505 6.44037L3.2724 5.5634C3.65646 5.25365 3.7475 5.17122 3.80171 5.08249C3.8592 4.98837 3.89427 4.88229 3.9042 4.77245C3.91356 4.6689 3.88958 4.54845 3.7658 4.07082L3.43713 2.80254C3.35647 2.49128 3.33307 2.41249 3.30343 2.35434C3.20591 2.16306 3.028 2.02537 2.81837 1.97896C2.75464 1.96486 2.6725 1.96197 2.35096 1.96197C1.97233 1.96197 1.87934 1.96641 1.79848 1.98941C1.56265 2.05652 1.32894 2.3162 1.28697 2.55778C1.27221 2.64276 1.27593 2.71459 1.3091 3.02868C1.44239 4.2909 1.73964 5.43058 2.18505 6.44037Z" fill="#686D89"/>
</svg>
