<svg width="13" height="13" viewBox="0 0 13 13" fill="none" xmlns="http://www.w3.org/2000/svg">
<path fill-rule="evenodd" clip-rule="evenodd" d="M6.8 1.6892C3.97738 1.6892 1.68919 3.97739 1.68919 6.80001C1.68919 7.4025 1.83636 8.02377 2.03564 8.5841L2.03926 8.59427L2.03927 8.59429C2.20152 9.05048 2.32791 9.40585 2.41535 9.67977C2.5 9.94491 2.56562 10.1846 2.57859 10.3909C2.58852 10.5489 2.59234 10.6914 2.57359 10.8429C2.55484 10.9944 2.51639 11.1316 2.46823 11.2825C2.40863 11.4691 2.31415 11.6479 2.19924 11.8379C2.18491 11.8615 2.16999 11.8859 2.15446 11.9108H6.8C9.62262 11.9108 11.9108 9.62263 11.9108 6.80001C11.9108 3.97739 9.62262 1.6892 6.8 1.6892ZM0.600001 6.80001C0.600001 3.37585 3.37583 0.600016 6.8 0.600016C10.2242 0.600016 13 3.37585 13 6.80001C13 10.2242 10.2242 13 6.8 13H1.1446C0.943751 13 0.75921 12.8895 0.66444 12.7124C0.569671 12.5353 0.580057 12.3204 0.691465 12.1533L0.832825 11.9413C1.02989 11.6457 1.16773 11.4387 1.2673 11.2741C1.36685 11.1096 1.40978 11.0165 1.43066 10.9511C1.47284 10.8191 1.48652 10.7586 1.49265 10.7091C1.49878 10.6596 1.50025 10.5976 1.49155 10.4592C1.48791 10.4014 1.46257 10.2767 1.37776 10.011C1.29639 9.75614 1.17605 9.41758 1.00943 8.94908C0.785462 8.31936 0.600001 7.56908 0.600001 6.80001ZM3.74189 5.54326C3.74189 5.24249 3.98571 4.99866 4.28649 4.99866H9.31351C9.61428 4.99866 9.8581 5.24249 9.8581 5.54326C9.8581 5.84403 9.61428 6.08785 9.31351 6.08785H4.28649C3.98571 6.08785 3.74189 5.84403 3.74189 5.54326ZM4.28649 7.51217C3.98571 7.51217 3.74189 7.756 3.74189 8.05677C3.74189 8.35754 3.98571 8.60136 4.28649 8.60136H6.8C7.10077 8.60136 7.34459 8.35754 7.34459 8.05677C7.34459 7.756 7.10077 7.51217 6.8 7.51217H4.28649Z" fill="#686D89"/>
</svg>
