<?xml version="1.0"?>
<svg xmlns="http://www.w3.org/2000/svg" height="512px" version="1.1" viewBox="0 -140 934.99974 934" width="512px" class=""><g><g id="surface1">
<path d="M 3.117188 648.71875 C 6.0625 652.648438 10.675781 654.960938 15.585938 654.960938 L 919.410156 654.960938 C 924.34375 654.960938 928.976562 652.628906 931.910156 648.671875 C 934.863281 644.726562 935.753906 639.621094 934.34375 634.902344 L 887.589844 479.074219 C 885.625 472.472656 879.546875 467.960938 872.664062 467.960938 L 806.34375 467.960938 L 762.925781 323.234375 C 760.953125 316.636719 754.882812 312.128906 748 312.128906 L 681.675781 312.128906 L 638.253906 167.40625 C 636.289062 160.808594 630.210938 156.289062 623.328125 156.289062 L 311.664062 156.289062 C 304.785156 156.289062 298.714844 160.808594 296.734375 167.40625 L 253.324219 312.128906 L 187 312.128906 C 180.117188 312.128906 174.042969 316.636719 172.074219 323.234375 L 128.660156 467.960938 L 62.328125 467.960938 C 55.453125 467.960938 49.378906 472.472656 47.402344 479.074219 L 0.652344 634.902344 C -0.761719 639.632812 0.152344 644.769531 3.117188 648.71875 Z M 285.863281 623.796875 L 323.257812 499.125 L 455.902344 499.125 L 493.308594 623.796875 Z M 264.914062 585.144531 L 239.109375 499.125 L 290.722656 499.125 Z M 580.574219 343.289062 L 617.972656 467.960938 L 410.53125 467.960938 L 447.925781 343.289062 Z M 540.058594 499.125 L 514.246094 585.144531 L 488.445312 499.125 Z M 389.578125 429.3125 L 363.78125 343.289062 L 415.394531 343.289062 Z M 535.191406 623.796875 L 572.59375 499.125 L 705.238281 499.125 L 742.644531 623.796875 Z M 898.472656 623.796875 L 775.175781 623.796875 L 737.78125 499.125 L 861.078125 499.125 Z M 773.804688 467.960938 L 650.507812 467.960938 L 613.113281 343.289062 L 736.410156 343.289062 Z M 649.144531 312.128906 L 525.839844 312.128906 L 488.445312 187.460938 L 611.742188 187.460938 Z M 323.257812 187.460938 L 455.902344 187.460938 L 493.308594 312.128906 L 285.863281 312.128906 Z M 198.589844 343.289062 L 331.238281 343.289062 L 368.636719 467.960938 L 161.195312 467.960938 Z M 73.929688 499.125 L 206.578125 499.125 L 243.972656 623.796875 L 36.53125 623.796875 Z M 73.929688 499.125 " data-original="#000000" class="active-path" data-old_color="#f5bd35" fill="#f5bd35"/>
<path d="M 202.796875 143.261719 C 204.070312 150.757812 210.5625 156.25 218.164062 156.25 C 225.773438 156.25 232.261719 150.757812 233.535156 143.261719 C 237.769531 117.878906 257.664062 97.976562 283.054688 93.738281 C 290.550781 92.46875 296.046875 85.980469 296.046875 78.375 C 296.046875 70.769531 290.550781 64.277344 283.054688 63.003906 C 257.664062 58.765625 237.769531 38.871094 233.535156 13.488281 C 232.261719 5.984375 225.773438 0.5 218.164062 0.5 C 210.5625 0.5 204.070312 5.984375 202.796875 13.488281 C 198.558594 38.871094 178.664062 58.765625 153.28125 63.003906 C 145.777344 64.277344 140.292969 70.769531 140.292969 78.375 C 140.292969 85.980469 145.777344 92.46875 153.28125 93.738281 C 178.664062 97.976562 198.558594 117.878906 202.796875 143.261719 Z M 218.164062 56.121094 C 224.246094 64.777344 231.769531 72.296875 240.421875 78.375 C 231.769531 84.453125 224.246094 91.980469 218.164062 100.628906 C 212.089844 91.980469 204.558594 84.453125 195.917969 78.375 C 204.558594 72.296875 212.089844 64.777344 218.164062 56.121094 Z M 218.164062 56.121094 " data-original="#000000" class="active-path" data-old_color="#f5bd35" fill="#f5bd35"/>
</g></g> </svg>
