<?xml version="1.0"?>
<svg xmlns="http://www.w3.org/2000/svg" id="Outline" height="512px" viewBox="0 0 512 512" width="512px"><g><path d="m275.563 401.344-19.563 13.041-19.562-13.041-8.875 13.312 14.015 9.344-14.015 9.344 8.875 13.312 19.562-13.041 19.563 13.041 8.875-13.312-14.016-9.344 14.016-9.344z" data-original="#000000" class="active-path" data-old_color="#000000" fill="#9F9CC7"/><path d="m340.775 145.582a8 8 0 0 0 -7.074-1.245l-77.701 23.311-77.7-23.311a8 8 0 0 0 -10.3 7.663v40a8 8 0 0 0 5.7 7.663l80 24a8.01 8.01 0 0 0 4.6 0l80-24a8 8 0 0 0 5.7-7.663v-40a8 8 0 0 0 -3.225-6.418zm-12.775 40.466-72 21.6-72-21.6v-23.3l69.7 20.911a8 8 0 0 0 4.6 0l69.7-20.907z" data-original="#000000" class="active-path" data-old_color="#000000" fill="#9F9CC7"/><path d="m340.775 225.582a8 8 0 0 0 -7.074-1.245l-77.701 23.311-77.7-23.311a8 8 0 0 0 -10.3 7.663v40a8 8 0 0 0 5.7 7.663l80 24a8.01 8.01 0 0 0 4.6 0l80-24a8 8 0 0 0 5.7-7.663v-40a8 8 0 0 0 -3.225-6.418zm-12.775 40.466-72 21.6-72-21.6v-23.3l69.7 20.911a8 8 0 0 0 4.6 0l69.7-20.907z" data-original="#000000" class="active-path" data-old_color="#000000" fill="#9F9CC7"/><path d="m340.775 305.582a8 8 0 0 0 -7.074-1.245l-77.701 23.311-77.7-23.311a8 8 0 0 0 -10.3 7.663v40a8 8 0 0 0 5.7 7.663l80 24a8.01 8.01 0 0 0 4.6 0l80-24a8 8 0 0 0 5.7-7.663v-40a8 8 0 0 0 -3.225-6.418zm-12.775 40.466-72 21.6-72-21.6v-23.3l69.7 20.911a8 8 0 0 0 4.6 0l69.7-20.907z" data-original="#000000" class="active-path" data-old_color="#000000" fill="#9F9CC7"/><path d="m400 368-32.4 43.2 12.8 9.6 34-45.332a8 8 0 0 0 1.6-4.8v-114.668h-16z" data-original="#000000" class="active-path" data-old_color="#000000" fill="#9F9CC7"/><path d="m400 224h16v16h-16z" data-original="#000000" class="active-path" data-old_color="#000000" fill="#9F9CC7"/><path d="m384 360v-336a8 8 0 0 0 -8-8h-240a8 8 0 0 0 -8 8v336a8 8 0 0 0 1.6 4.8l96 128a8 8 0 0 0 6.4 3.2h48a8 8 0 0 0 6.4-3.2l96-128a8 8 0 0 0 1.6-4.8zm-16-328v62.048l-112 33.6-112-33.6v-62.048zm-92 448h-40l-92-122.667v-246.581l109.7 32.911a8.01 8.01 0 0 0 4.6 0l109.7-32.911v246.581z" data-original="#000000" class="active-path" data-old_color="#000000" fill="#9F9CC7"/><path d="m233.344 100.438a8 8 0 0 0 6.656 3.562h32a8 8 0 0 0 6.656-3.562l14.284-21.427 29-7.25-3.88-15.522-32 8a8 8 0 0 0 -4.716 3.323l-13.625 20.438h-23.438l-13.625-20.438a8 8 0 0 0 -5.087-3.407l-40-8-3.138 15.69 36.751 7.35z" data-original="#000000" class="active-path" data-old_color="#000000" fill="#9F9CC7"/><path d="m248 48h16v16h-16z" data-original="#000000" class="active-path" data-old_color="#000000" fill="#9F9CC7"/><path d="m96 56h16v160h-16z" data-original="#000000" class="active-path" data-old_color="#000000" fill="#9F9CC7"/></g> </svg>
